<?xml version="1.0" encoding="UTF-8" standalone="no"?>
<svg
   xmlns:dc="http://purl.org/dc/elements/1.1/"
   xmlns:cc="http://creativecommons.org/ns#"
   xmlns:rdf="http://www.w3.org/1999/02/22-rdf-syntax-ns#"
   xmlns:svg="http://www.w3.org/2000/svg"
   xmlns="http://www.w3.org/2000/svg"
   id="svg200"
   xml:space="preserve"
   viewBox="0 0 550 445"
   height="445"
   width="550"
   version="1.1"><metadata
     id="metadata204"><rdf:RDF><cc:Work
         rdf:about=""><dc:format>image/svg+xml</dc:format><dc:type
           rdf:resource="http://purl.org/dc/dcmitype/StillImage" /></cc:Work></rdf:RDF></metadata><defs
     id="defs4"><style
       id="style2"
       type="text/css">@import url(&quot;https://fonts.googleapis.com/css2?family=Elsie:wght@400&quot;);</style></defs><defs
     id="defs6" /><g
     id="container-outline"
     transform="matrix(1 0 0 1 273 222.5)"><linearGradient
       y2="136.79999999999998"
       x2="0"
       y1="0"
       x1="0"
       gradientTransform="matrix(1 0 0 1 -68.4 -68.4)"
       gradientUnits="userSpaceOnUse"
       id="SVGID_265"><stop
         id="stop8"
         style="stop-color:rgb(245,245,245);stop-opacity: 1"
         offset="0%" /></linearGradient><rect
       id="rect11"
       height="136.79999999999998"
       width="136.79999999999998"
       ry="5"
       rx="5"
       y="-68.39999999999999"
       x="-68.39999999999999"
       style="stroke: #ffffff; stroke-width: 5; stroke-dasharray: none; stroke-linecap: butt; stroke-dashoffset: 0; stroke-linejoin: miter; stroke-miterlimit: 4; fill: rgb(0,0,0); fill-opacity: 0; fill-rule: nonzero; opacity: 1;" /></g><g
     id="icon"
     transform="matrix(0.42 0 0 0.42 273 222.5)"><g
       id="g191"
       style=""><g
         id="other_icon"
         transform="matrix(1 0 0 1 4.5 0.16)"><linearGradient
           y2="136.58"
           x2="213.62"
           y1="136.58"
           x1="15.83"
           gradientTransform="matrix(1 0 0 1 0 0)"
           gradientUnits="userSpaceOnUse"
           id="SVGID_e752bbf0-c5bb-4200-a55d-0bd810856903_822"><stop
             id="stop14"
             style="stop-color:rgb(16,34,41);stop-opacity: 1"
             offset="0%" /><stop
             id="stop16"
             style="stop-color:rgb(43,80,97);stop-opacity: 1"
             offset="100%" /></linearGradient><path
           id="path19"
           stroke-linecap="round"
           d="M 209.15 151.25 a 46.53 46.53 0 0 1 4.47 20.8 q 0 15.54 -6.08 26.3 a 49.87 49.87 0 0 1 -16.41 17.5 a 71.42 71.42 0 0 1 -23.8 9.74 a 129.93 129.93 0 0 1 -28.42 3 h -0.71 c -0.45 1 -0.94 1.9 -1.45 2.81 a 49.9 49.9 0 0 1 -16.41 17.51 a 71.63 71.63 0 0 1 -23.8 9.74 a 130.55 130.55 0 0 1 -28.42 3 a 117.4 117.4 0 0 1 -12.3 -0.8 q -7.34 -0.81 -15 -2.35 a 121.81 121.81 0 0 1 -14.42 -3.8 A 46.51 46.51 0 0 1 16.08 250 l -0.06 -0.59 v -29 l 70.31 -32.84 a 56.14 56.14 0 0 0 11.94 7.91 a 97 97 0 0 0 14.65 5.94 c 1.29 0.41 2.59 0.79 3.88 1.15 a 26.76 26.76 0 0 0 -3.48 -10.51 A 42.18 42.18 0 0 0 103 180.57 a 103 103 0 0 0 -15.6 -10 q -9 -4.76 -19.41 -10 Q 57 155 47.47 149.3 a 89 89 0 0 1 -16.56 -12.6 a 52.77 52.77 0 0 1 -11.06 -15.6 a 48.36 48.36 0 0 1 -4 -20.43 q 0 -14.36 6.29 -25 a 54 54 0 0 1 16.56 -17.5 A 75.06 75.06 0 0 1 62 47.93 a 107.25 107.25 0 0 1 26.73 -3.37 l 3.06 0 c 0.34 -0.66 0.7 -1.3 1.08 -1.94 a 54 54 0 0 1 16.56 -17.51 a 74.81 74.81 0 0 1 23.36 -10.25 a 106.78 106.78 0 0 1 26.73 -3.37 q 31.07 0 45.27 7.47 l 0.19 0.45 v 27 l -0.19 0.23 L 134 79.72 A 68.18 68.18 0 0 0 112.67 70 a 27.34 27.34 0 0 0 2.73 9.31 A 33.94 33.94 0 0 0 124.26 90 a 88.33 88.33 0 0 0 14.28 9.38 q 8.43 4.55 19.41 10 q 11.28 5.56 21.39 11.72 a 97.66 97.66 0 0 1 17.72 13.62 A 60.6 60.6 0 0 1 209.15 151.25 Z"
           transform=" translate(-114.73, -136.57)"
           style="stroke: none; stroke-width: 1; stroke-dasharray: none; stroke-linecap: butt; stroke-dashoffset: 0; stroke-linejoin: miter; stroke-miterlimit: 4; fill: url(#SVGID_e752bbf0-c5bb-4200-a55d-0bd810856903_822); fill-rule: nonzero; opacity: 1;" /></g><g
         id="g29"
         transform="matrix(1 0 0 1 -0.02 0)"><linearGradient
           y2="136.41"
           x2="220.47"
           y1="136.41"
           x1="0"
           gradientTransform="matrix(1 0 0 1 0 0)"
           gradientUnits="userSpaceOnUse"
           id="SVGID_a89f0c54-ec25-4d69-b7a5-a7e097a3a04f_823"><stop
             id="stop22"
             style="stop-color:rgb(16,34,41);stop-opacity: 1"
             offset="0%" /><stop
             id="stop24"
             style="stop-color:rgb(43,80,97);stop-opacity: 1"
             offset="100%" /></linearGradient><path
           id="path27"
           stroke-linecap="round"
           d="M 214.83 146.07 a 72.4 72.4 0 0 0 -14.32 -19.64 a 109.85 109.85 0 0 0 -19.77 -15.21 c -7 -4.27 -14.51 -8.38 -22.27 -12.2 c -7.17 -3.54 -13.58 -6.83 -19 -9.77 c -0.61 -0.32 -1.2 -0.65 -1.78 -1 l 67.48 -31.51 a 11.93 11.93 0 0 0 6.73 -10.5 v -27 a 11.38 11.38 0 0 0 -1 -4.67 a 11.32 11.32 0 0 0 -5.25 -5.82 C 194.38 2.87 177.85 0 155.07 0 a 118.71 118.71 0 0 0 -29.55 3.72 A 86.39 86.39 0 0 0 98.66 15.54 A 65.58 65.58 0 0 0 81 33.1 a 119.33 119.33 0 0 0 -26.24 3.68 A 86.7 86.7 0 0 0 27.87 48.6 a 65.53 65.53 0 0 0 -20 21.13 C 2.65 78.54 0 88.89 0 100.5 a 59.7 59.7 0 0 0 5.07 25.19 a 64.3 64.3 0 0 0 13.42 18.94 a 100.53 100.53 0 0 0 18.65 14.22 c 6.51 3.91 13.65 7.84 21.22 11.68 c 5.3 2.68 10.53 5.37 15.61 8 L 6.72 210 A 11.35 11.35 0 0 0 0.18 220.42 v 28.82 a 10.88 10.88 0 0 0 0.06 1.14 l 0.06 0.59 a 11.33 11.33 0 0 0 5.14 8.39 a 57.53 57.53 0 0 0 12.93 5.93 a 134.75 134.75 0 0 0 15.75 4.15 c 5.35 1.09 10.72 1.93 16 2.51 a 128 128 0 0 0 13.52 0.87 a 142.46 142.46 0 0 0 30.88 -3.27 A 83.3 83.3 0 0 0 122 258.24 a 61.15 61.15 0 0 0 18.38 -18.59 a 139.28 139.28 0 0 0 24.88 -3.16 a 83.28 83.28 0 0 0 27.53 -11.31 a 61.41 61.41 0 0 0 20.09 -21.43 c 5 -8.87 7.55 -19.6 7.55 -31.87 A 58 58 0 0 0 214.83 146.07 Z M 193.18 192.6 a 38.46 38.46 0 0 1 -12.75 13.59 a 60.37 60.37 0 0 1 -20.07 8.16 a 118.93 118.93 0 0 1 -25.94 2.74 h -0.23 a 11.3 11.3 0 0 0 -10.75 6.51 c -0.31 0.67 -0.67 1.37 -1 2.05 a 38.36 38.36 0 0 1 -12.74 13.59 a 60.52 60.52 0 0 1 -20.06 8.17 a 119.94 119.94 0 0 1 -26 2.73 a 108.36 108.36 0 0 1 -11.06 -0.73 c -4.55 -0.51 -9.24 -1.24 -14 -2.2 a 110.71 110.71 0 0 1 -13.07 -3.44 c -0.95 -0.31 -1.85 -0.64 -2.68 -1 V 227.46 L 80.39 200.6 a 73.12 73.12 0 0 0 8.26 4.83 A 107.37 107.37 0 0 0 105 212.06 c 1.27 0.41 2.63 0.81 4.15 1.24 a 12 12 0 0 0 1.19 0.27 l 0.33 0.05 c 0.23 0 0.47 0.07 0.72 0.09 l 0.55 0 l 0.35 0 h 0.12 a 11.54 11.54 0 0 0 3.52 -0.58 l 0.17 -0.07 c 0.28 -0.1 0.57 -0.21 0.84 -0.33 s 0.32 -0.16 0.47 -0.24 s 0.34 -0.16 0.51 -0.26 s 0.29 -0.18 0.44 -0.28 l 0.49 -0.31 l 0.33 -0.26 c 0.19 -0.14 0.37 -0.27 0.54 -0.42 l 0.21 -0.19 c 0.2 -0.19 0.4 -0.38 0.59 -0.58 a 0.81 0.81 0 0 0 0.09 -0.1 c 0.22 -0.23 0.43 -0.48 0.63 -0.73 h 0 a 11 11 0 0 0 1.16 -1.82 a 11.16 11.16 0 0 0 0.82 -2.1 h 0 a 0.13 0.13 0 0 0 0 -0.06 a 9.22 9.22 0 0 0 0.24 -1 c 0 -0.14 0 -0.28 0 -0.42 s 0.07 -0.45 0.08 -0.68 s 0 -0.52 0 -0.78 c 0 -0.11 0 -0.22 0 -0.33 a 9.66 9.66 0 0 0 -0.11 -1.32 a 38.14 38.14 0 0 0 -5 -14.73 a 54 54 0 0 0 -13.06 -14.61 a 115.79 115.79 0 0 0 -17.32 -11.08 c -6.32 -3.34 -12.91 -6.74 -19.58 -10.12 c -7.09 -3.59 -13.75 -7.25 -19.8 -10.89 a 77.49 77.49 0 0 1 -14.45 -11 a 41.56 41.56 0 0 1 -8.7 -12.25 a 37.36 37.36 0 0 1 -3 -15.68 c 0 -7.58 1.54 -13.86 4.7 -19.2 A 42.56 42.56 0 0 1 40.51 67.43 a 64.2 64.2 0 0 1 19.85 -8.69 a 96.5 96.5 0 0 1 23.92 -3 l 2.94 0 h 0.21 a 9.22 9.22 0 0 0 1.29 -0.09 l 0.37 0 c 0.36 -0.06 0.73 -0.13 1.08 -0.22 l 0.29 -0.08 a 12.28 12.28 0 0 0 1.33 -0.46 l 0.06 0 A 10.4 10.4 0 0 0 93 54.22 l 0.33 -0.2 a 9.23 9.23 0 0 0 0.91 -0.63 l 0.24 -0.17 a 11.75 11.75 0 0 0 1 -0.9 l 0.29 -0.31 c 0.24 -0.28 0.48 -0.56 0.7 -0.86 c 0.06 -0.08 0.12 -0.15 0.18 -0.24 a 9.61 9.61 0 0 0 0.75 -1.23 a 0.35 0.35 0 0 0 0 -0.08 c 0.21 -0.41 0.45 -0.85 0.75 -1.35 A 42.4 42.4 0 0 1 111.3 34.37 a 63.86 63.86 0 0 1 19.87 -8.68 a 95.81 95.81 0 0 1 23.9 -3 c 17 0 27.54 1.76 34.12 3.81 V 39.18 L 130.33 66.67 A 82.08 82.08 0 0 0 111.4 59 l -0.15 0 l -0.13 0 a 2.8 2.8 0 0 0 -0.28 -0.06 c -0.25 -0.06 -0.5 -0.12 -0.75 -0.16 l -0.46 -0.07 l -0.64 -0.07 l -0.61 0 c -0.16 0 -0.32 0 -0.49 0 s -0.5 0 -0.76 0 l -0.28 0 h -0.08 c -0.26 0 -0.52 0.08 -0.77 0.13 l -0.36 0.07 L 105 59 l -0.47 0.14 l -0.42 0.16 l -0.63 0.25 l -0.2 0.11 c -0.26 0.12 -0.52 0.25 -0.77 0.39 l -0.1 0.07 a 8.57 8.57 0 0 0 -0.81 0.52 c -0.11 0.07 -0.2 0.16 -0.31 0.24 s -0.36 0.27 -0.54 0.42 s -0.45 0.41 -0.66 0.63 L 100 62 a 10.79 10.79 0 0 0 -1.26 1.58 l -0.09 0.13 c -0.13 0.2 -0.24 0.41 -0.36 0.61 s -0.14 0.24 -0.2 0.37 s -0.14 0.3 -0.21 0.46 s -0.18 0.38 -0.26 0.58 l -0.12 0.35 c -0.08 0.25 -0.17 0.49 -0.24 0.74 a 0.24 0.24 0 0 0 0 0.08 a 2.8 2.8 0 0 0 -0.06 0.28 c -0.06 0.25 -0.12 0.49 -0.16 0.74 s -0.05 0.33 -0.07 0.49 s 0 0.4 -0.07 0.6 s 0 0.44 0 0.66 s 0 0.29 0 0.44 s 0 0.54 0.05 0.81 c 0 0.08 0 0.17 0 0.25 s 0 0.07 0 0.11 a 2.23 2.23 0 0 0 0 0.23 a 38.62 38.62 0 0 0 3.84 12.8 a 45.45 45.45 0 0 0 11.74 14.27 a 100.3 100.3 0 0 0 16.12 10.62 c 5.7 3.07 12.35 6.49 19.77 10.15 c 7.16 3.53 14.06 7.31 20.52 11.24 a 86.46 86.46 0 0 1 15.67 12 a 49.4 49.4 0 0 1 9.85 13.45 a 35.5 35.5 0 0 1 3.31 15.8 C 197.79 180.2 196.24 187.18 193.18 192.6 Z"
           transform=" translate(-110.21, -136.41)"
           style="stroke: none; stroke-width: 1; stroke-dasharray: none; stroke-linecap: butt; stroke-dashoffset: 0; stroke-linejoin: miter; stroke-miterlimit: 4; fill: url(#SVGID_a89f0c54-ec25-4d69-b7a5-a7e097a3a04f_823); fill-rule: nonzero; opacity: 1;" /></g><g
         id="g36"
         transform="matrix(1 0 0 1 35.1 11.13)"><linearGradient
           y2="161.7544476984496"
           x2="127.6083732832246"
           y1="0"
           x1="0"
           gradientTransform="matrix(1 0 0 1 81.53 66.67)"
           gradientUnits="userSpaceOnUse"
           id="SVGID_830"><stop
             id="stop31"
             style="stop-color:rgb(255,255,255);stop-opacity: 1"
             offset="0%" /></linearGradient><path
           id="path34"
           stroke-linecap="round"
           d="M 204.66 151.08 a 46.53 46.53 0 0 1 4.47 20.8 q 0 15.54 -6.08 26.3 a 49.87 49.87 0 0 1 -16.41 17.5 a 71.42 71.42 0 0 1 -23.8 9.74 a 129.93 129.93 0 0 1 -28.42 3 h -0.71 q -4.78 0 -11.6 -0.8 q -7.32 -0.81 -14.94 -2.34 l -0.13 0 a 120.29 120.29 0 0 1 -14.3 -3.78 a 44.88 44.88 0 0 1 -10.91 -5.05 l -0.18 0.09 l -0.12 -0.25 l 0.62 -28.47 l 0 -0.06 a 56.38 56.38 0 0 0 11.57 7.59 a 97 97 0 0 0 14.65 5.94 c 1.29 0.41 2.59 0.79 3.88 1.15 A 118.08 118.08 0 0 0 123.87 205 a 86.1 86.1 0 0 0 14.36 1.32 h 0.1 q 22.62 0 33.81 -8.42 t 11.21 -24.25 a 28.46 28.46 0 0 0 -3.74 -14.79 a 42 42 0 0 0 -10.33 -11.5 a 101.5 101.5 0 0 0 -15.6 -10 q -9 -4.75 -19.41 -10 q -11 -5.56 -20.5 -11.28 a 88.53 88.53 0 0 1 -16.56 -12.59 a 52.59 52.59 0 0 1 -11.06 -15.6 a 48.37 48.37 0 0 1 -4 -20.44 c 0 -0.26 0 -0.52 0 -0.78 a 101.79 101.79 0 0 1 26.05 3.19 a 27.34 27.34 0 0 0 2.73 9.31 a 33.94 33.94 0 0 0 8.86 10.69 a 88.33 88.33 0 0 0 14.28 9.38 q 8.43 4.55 19.41 10 q 11.28 5.57 21.39 11.72 a 97.66 97.66 0 0 1 17.72 13.62 A 60.6 60.6 0 0 1 204.66 151.08 Z"
           transform=" translate(-145.33, -147.54)"
           style="stroke: none; stroke-width: 1; stroke-dasharray: none; stroke-linecap: butt; stroke-dashoffset: 0; stroke-linejoin: miter; stroke-miterlimit: 4; fill: url(#SVGID_830); fill-rule: nonzero; opacity: 1;" /></g><g
         id="g43"
         transform="matrix(1 0 0 1 54.61 -87.22)"><linearGradient
           y2="60.73"
           x2="71.36999999999998"
           y1="0"
           x1="0"
           gradientTransform="matrix(1 0 0 1 129.16 18.82)"
           gradientUnits="userSpaceOnUse"
           id="SVGID_831"><stop
             id="stop38"
             style="stop-color:rgb(255,255,255);stop-opacity: 1"
             offset="0%" /></linearGradient><path
           id="path41"
           stroke-linecap="round"
           d="M 200.53 19.26 v 27 l -0.19 0.23 L 129.55 79.55 l -0.39 -0.26 l 0.37 -0.54 V 52.26 l 0 -0.4 l 37.28 -17.41 l 33.49 -15.63 Z"
           transform=" translate(-164.85, -49.19)"
           style="stroke: none; stroke-width: 1; stroke-dasharray: none; stroke-linecap: butt; stroke-dashoffset: 0; stroke-linejoin: miter; stroke-miterlimit: 4; fill: url(#SVGID_831); fill-rule: nonzero; opacity: 1;" /></g><g
         id="g50"
         transform="matrix(1 0 0 1 33.61 -107.26)"><linearGradient
           y2="35.545268947256744"
           x2="112.99999999999997"
           y1="0"
           x1="0"
           gradientTransform="matrix(1 0 0 1 87.34 11.37)"
           gradientUnits="userSpaceOnUse"
           id="SVGID_832"><stop
             id="stop45"
             style="stop-color:rgb(255,255,255);stop-opacity: 1"
             offset="0%" /></linearGradient><path
           id="path48"
           stroke-linecap="round"
           d="M 200.34 18.81 h 0 L 166.83 34.45 a 114 114 0 0 0 -14.25 -0.85 a 78.73 78.73 0 0 0 -16.11 1.69 a 45.46 45.46 0 0 0 -14.36 5.49 a 31.63 31.63 0 0 0 -7.41 6.14 a 147.78 147.78 0 0 0 -27.36 -2.51 c 0.34 -0.66 0.7 -1.3 1.08 -1.94 A 54 54 0 0 1 105 25 a 74.81 74.81 0 0 1 23.36 -10.25 a 106.78 106.78 0 0 1 26.73 -3.37 Q 186.14 11.34 200.34 18.81 Z"
           transform=" translate(-143.84, -29.15)"
           style="stroke: none; stroke-width: 1; stroke-dasharray: none; stroke-linecap: butt; stroke-dashoffset: 0; stroke-linejoin: miter; stroke-miterlimit: 4; fill: url(#SVGID_832); fill-rule: nonzero; opacity: 1;" /></g><g
         id="g57"
         transform="matrix(1 0 0 1 -35.39 -11.06)"><linearGradient
           y2="161.92019140654517"
           x2="127.00187340526513"
           y1="0"
           x1="0"
           gradientTransform="matrix(1 0 0 1 11.35 44.39)"
           gradientUnits="userSpaceOnUse"
           id="SVGID_833"><stop
             id="stop52"
             style="stop-color:rgb(255,255,255);stop-opacity: 1"
             offset="0%" /></linearGradient><path
           id="path55"
           stroke-linecap="round"
           d="M 138.34 204.94 c 0 0.46 0 0.92 0 1.37 h -0.1 A 86.1 86.1 0 0 1 123.87 205 a 118.08 118.08 0 0 1 -11.57 -2.58 a 26.76 26.76 0 0 0 -3.48 -10.51 a 42.18 42.18 0 0 0 -10.33 -11.5 a 103 103 0 0 0 -15.6 -10 q -9 -4.75 -19.41 -10 q -11 -5.57 -20.5 -11.28 a 89 89 0 0 1 -16.56 -12.6 a 52.77 52.77 0 0 1 -11.06 -15.6 a 48.36 48.36 0 0 1 -4 -20.43 q 0 -14.35 6.29 -25 A 54 54 0 0 1 34.19 58 A 75.06 75.06 0 0 1 57.55 47.76 a 107.25 107.25 0 0 1 26.73 -3.37 l 3.06 0 a 147.78 147.78 0 0 1 27.36 2.51 a 56.48 56.48 0 0 1 14.85 4.94 l 0 0.4 V 78.75 l -0.37 0.54 a 68.35 68.35 0 0 0 -21 -9.44 a 101.79 101.79 0 0 0 -26.05 -3.19 h -0.34 a 78.71 78.71 0 0 0 -16.11 1.68 a 45.56 45.56 0 0 0 -14.35 5.5 a 31.88 31.88 0 0 0 -10.26 9.81 a 26.13 26.13 0 0 0 -4 14.65 a 30.21 30.21 0 0 0 3 13.92 A 34.05 34.05 0 0 0 49 122.91 a 88.33 88.33 0 0 0 14.28 9.37 q 8.43 4.54 19.41 10 q 11.28 5.58 21.39 11.72 a 97.8 97.8 0 0 1 17.72 13.63 a 60.6 60.6 0 0 1 12.09 16.55 A 46.53 46.53 0 0 1 138.34 204.94 Z"
           transform=" translate(-74.85, -125.35)"
           style="stroke: none; stroke-width: 1; stroke-dasharray: none; stroke-linecap: butt; stroke-dashoffset: 0; stroke-linejoin: miter; stroke-miterlimit: 4; fill: url(#SVGID_833); fill-rule: nonzero; opacity: 1;" /></g><g
         id="g64"
         transform="matrix(1 0 0 1 -37.59 104.77)"><linearGradient
           y2="40.60132280660639"
           x2="122.14000000000001"
           y1="0"
           x1="0"
           gradientTransform="matrix(1 0 0 1 11.57 220.88)"
           gradientUnits="userSpaceOnUse"
           id="SVGID_834"><stop
             id="stop59"
             style="stop-color:rgb(255,255,255);stop-opacity: 1"
             offset="0%" /></linearGradient><path
           id="path62"
           stroke-linecap="round"
           d="M 133.71 228.42 c -0.45 1 -0.94 1.9 -1.45 2.81 a 49.9 49.9 0 0 1 -16.41 17.51 a 71.63 71.63 0 0 1 -23.8 9.74 a 130.55 130.55 0 0 1 -28.42 3 a 117.4 117.4 0 0 1 -12.3 -0.8 q -7.34 -0.81 -14.95 -2.35 A 121.81 121.81 0 0 1 22 254.53 a 46.82 46.82 0 0 1 -10.38 -4.7 l -0.05 -0.59 V 220.88 A 56.7 56.7 0 0 0 23 228.38 a 96.91 96.91 0 0 0 14.65 5.93 c 1.2 0.38 2.4 0.73 3.6 1.07 a 116.11 116.11 0 0 0 11.85 2.67 a 87.1 87.1 0 0 0 14.36 1.31 q 22.69 0 33.91 -8.42 a 27.4 27.4 0 0 0 5.69 -5.69 l 0.13 0 q 7.62 1.53 14.94 2.34 Q 128.94 228.37 133.71 228.42 Z"
           transform=" translate(-72.64, -241.18)"
           style="stroke: none; stroke-width: 1; stroke-dasharray: none; stroke-linecap: butt; stroke-dashoffset: 0; stroke-linejoin: miter; stroke-miterlimit: 4; fill: url(#SVGID_834); fill-rule: nonzero; opacity: 1;" /></g><g
         id="g71"
         transform="matrix(1 0 0 1 -63.36 74.99)"><linearGradient
           y2="47.96999999999997"
           x2="70.68"
           y1="0"
           x1="0"
           gradientTransform="matrix(1 0 0 1 11.53 187.41)"
           gradientUnits="userSpaceOnUse"
           id="SVGID_835"><stop
             id="stop66"
             style="stop-color:rgb(255,255,255);stop-opacity: 1"
             offset="0%" /></linearGradient><path
           id="path69"
           stroke-linecap="round"
           d="M 11.53 220.88 v -0.64 l 70.31 -32.83 l 0.37 0.32 l 0 0.06 l -0.62 28.47 l 0.12 0.25 L 41.23 235.38 c -1.2 -0.34 -2.4 -0.69 -3.6 -1.07 A 96.91 96.91 0 0 1 23 228.38 A 56.7 56.7 0 0 1 11.53 220.88 Z"
           transform=" translate(-46.87, -211.4)"
           style="stroke: none; stroke-width: 1; stroke-dasharray: none; stroke-linecap: butt; stroke-dashoffset: 0; stroke-linejoin: miter; stroke-miterlimit: 4; fill: url(#SVGID_835); fill-rule: nonzero; opacity: 1;" /></g><g
         id="g88"
         transform="matrix(1 0 0 1 -80.3 86.86)"><linearGradient
           y2="215.88"
           x2="38.31"
           y1="232.18"
           x1="25.11"
           gradientTransform="matrix(1 0 0 1 0 0)"
           gradientUnits="userSpaceOnUse"
           id="SVGID_e0a1e1c8-e29a-46d9-b958-03f48cee190c_824"><stop
             id="stop73"
             style="stop-color:rgb(179,179,179);stop-opacity: 1"
             offset="0%" /><stop
             id="stop75"
             style="stop-color:rgb(186,186,186);stop-opacity: 0.72"
             offset="21%" /><stop
             id="stop77"
             style="stop-color:rgb(194,194,194);stop-opacity: 0.41"
             offset="48%" /><stop
             id="stop79"
             style="stop-color:rgb(199,199,199);stop-opacity: 0.19"
             offset="71%" /><stop
             id="stop81"
             style="stop-color:rgb(203,203,203);stop-opacity: 0.05"
             offset="89%" /><stop
             id="stop83"
             style="stop-color:rgb(204,204,204);stop-opacity: 0"
             offset="100%" /></linearGradient><path
           id="path86"
           stroke-linecap="round"
           d="M 48.48 232.08 l -7.39 3.45 c -1.2 -0.34 -2.4 -0.69 -3.6 -1.07 a 96.91 96.91 0 0 1 -14.65 -5.93 A 56.7 56.7 0 0 1 11.39 221 v -0.64 l 20 -9.35 A 35.52 35.52 0 0 1 48.48 232.08 Z"
           transform=" translate(-29.93, -223.27)"
           style="stroke: none; stroke-width: 1; stroke-dasharray: none; stroke-linecap: butt; stroke-dashoffset: 0; stroke-linejoin: miter; stroke-miterlimit: 4; fill: url(#SVGID_e0a1e1c8-e29a-46d9-b958-03f48cee190c_824); fill-rule: nonzero; opacity: 1;" /></g><g
         id="g109"
         transform="matrix(1 0 0 1 5.43 101.34)"><linearGradient
           y2="244.21"
           x2="105.56"
           y1="221.24"
           x1="124.83"
           gradientTransform="matrix(1 0 0 1 0 0)"
           gradientUnits="userSpaceOnUse"
           id="SVGID_a5886931-cc35-4d7f-a39d-c29516623e44_825"><stop
             id="stop90"
             style="stop-color:rgb(179,179,179);stop-opacity: 1"
             offset="0%" /><stop
             id="stop92"
             style="stop-color:rgb(183,183,183);stop-opacity: 0.85"
             offset="8%" /><stop
             id="stop94"
             style="stop-color:rgb(189,189,189);stop-opacity: 0.59"
             offset="24%" /><stop
             id="stop96"
             style="stop-color:rgb(195,195,195);stop-opacity: 0.38"
             offset="40%" /><stop
             id="stop98"
             style="stop-color:rgb(199,199,199);stop-opacity: 0.21"
             offset="55.00000000000001%" /><stop
             id="stop100"
             style="stop-color:rgb(202,202,202);stop-opacity: 0.09"
             offset="71%" /><stop
             id="stop102"
             style="stop-color:rgb(203,203,203);stop-opacity: 0.02"
             offset="86%" /><stop
             id="stop104"
             style="stop-color:rgb(204,204,204);stop-opacity: 0"
             offset="100%" /></linearGradient><path
           id="path107"
           stroke-linecap="round"
           d="M 133.57 228.57 c -0.45 1 -0.94 1.9 -1.45 2.81 a 49.9 49.9 0 0 1 -16.41 17.51 c -0.64 0.42 -1.29 0.83 -1.95 1.22 a 38.16 38.16 0 0 1 -16 -16.78 a 30.07 30.07 0 0 0 3.45 -2.24 a 27.4 27.4 0 0 0 5.69 -5.69 l 0.13 0 q 7.62 1.53 14.94 2.34 Q 128.79 228.52 133.57 228.57 Z"
           transform=" translate(-115.66, -237.75)"
           style="stroke: none; stroke-width: 1; stroke-dasharray: none; stroke-linecap: butt; stroke-dashoffset: 0; stroke-linejoin: miter; stroke-miterlimit: 4; fill: url(#SVGID_a5886931-cc35-4d7f-a39d-c29516623e44_825); fill-rule: nonzero; opacity: 1;" /></g><g
         id="g126"
         transform="matrix(1 0 0 1 12.06 56.2)"><linearGradient
           y2="181.71"
           x2="116.97"
           y1="209.94"
           x1="131.36"
           gradientTransform="matrix(1 0 0 1 0 0)"
           gradientUnits="userSpaceOnUse"
           id="SVGID_bbedfe80-8f8c-4479-84a0-13db40502bb5_826"><stop
             id="stop111"
             style="stop-color:rgb(179,179,179);stop-opacity: 1"
             offset="0%" /><stop
             id="stop113"
             style="stop-color:rgb(186,186,186);stop-opacity: 0.72"
             offset="21%" /><stop
             id="stop115"
             style="stop-color:rgb(194,194,194);stop-opacity: 0.41"
             offset="48%" /><stop
             id="stop117"
             style="stop-color:rgb(199,199,199);stop-opacity: 0.19"
             offset="71%" /><stop
             id="stop119"
             style="stop-color:rgb(203,203,203);stop-opacity: 0.05"
             offset="89%" /><stop
             id="stop121"
             style="stop-color:rgb(204,204,204);stop-opacity: 0"
             offset="100%" /></linearGradient><path
           id="path124"
           stroke-linecap="round"
           d="M 138.2 205.09 c 0 0.46 0 0.92 0 1.37 h -0.1 a 86.1 86.1 0 0 1 -14.36 -1.32 a 118.08 118.08 0 0 1 -11.57 -2.58 a 26.76 26.76 0 0 0 -3.48 -10.51 a 37.05 37.05 0 0 0 -2.3 -3.41 a 37.77 37.77 0 0 1 24.24 -9.88 h 0 a 58.74 58.74 0 0 1 3.1 5.53 A 46.53 46.53 0 0 1 138.2 205.09 Z"
           transform=" translate(-122.3, -192.61)"
           style="stroke: none; stroke-width: 1; stroke-dasharray: none; stroke-linecap: butt; stroke-dashoffset: 0; stroke-linejoin: miter; stroke-miterlimit: 4; fill: url(#SVGID_bbedfe80-8f8c-4479-84a0-13db40502bb5_826); fill-rule: nonzero; opacity: 1;" /></g><g
         id="g147"
         transform="matrix(1 0 0 1 -11.77 -58.13)"><linearGradient
           y2="89.74"
           x2="98.45"
           y1="66.81"
           x1="98.45"
           gradientTransform="matrix(1 0 0 1 0 0)"
           gradientUnits="userSpaceOnUse"
           id="SVGID_adbb5e67-3687-4ef2-99cc-b6e48d71476b_827"><stop
             id="stop128"
             style="stop-color:rgb(179,179,179);stop-opacity: 1"
             offset="0%" /><stop
             id="stop130"
             style="stop-color:rgb(183,183,183);stop-opacity: 0.85"
             offset="8%" /><stop
             id="stop132"
             style="stop-color:rgb(189,189,189);stop-opacity: 0.59"
             offset="24%" /><stop
             id="stop134"
             style="stop-color:rgb(195,195,195);stop-opacity: 0.38"
             offset="40%" /><stop
             id="stop136"
             style="stop-color:rgb(199,199,199);stop-opacity: 0.21"
             offset="55.00000000000001%" /><stop
             id="stop138"
             style="stop-color:rgb(202,202,202);stop-opacity: 0.09"
             offset="71%" /><stop
             id="stop140"
             style="stop-color:rgb(203,203,203);stop-opacity: 0.02"
             offset="86%" /><stop
             id="stop142"
             style="stop-color:rgb(204,204,204);stop-opacity: 0"
             offset="100%" /></linearGradient><path
           id="path145"
           stroke-linecap="round"
           d="M 110.77 79.31 a 30.71 30.71 0 0 0 4.16 6.13 a 30 30 0 0 1 -29.72 0.71 h 0 A 49.69 49.69 0 0 1 82 67.59 c 0 -0.26 0 -0.52 0 -0.78 A 101.79 101.79 0 0 1 108 70 A 27.34 27.34 0 0 0 110.77 79.31 Z"
           transform=" translate(-98.46, -78.28)"
           style="stroke: none; stroke-width: 1; stroke-dasharray: none; stroke-linecap: butt; stroke-dashoffset: 0; stroke-linejoin: miter; stroke-miterlimit: 4; fill: url(#SVGID_adbb5e67-3687-4ef2-99cc-b6e48d71476b_827); fill-rule: nonzero; opacity: 1;" /></g><g
         id="g168"
         transform="matrix(1 0 0 1 -5.36 -98)"><linearGradient
           y2="31.96"
           x2="112.27"
           y1="52.13"
           x1="97.61"
           gradientTransform="matrix(1 0 0 1 0 0)"
           gradientUnits="userSpaceOnUse"
           id="SVGID_e3e23732-759a-4688-966c-e4a62335ea8d_828"><stop
             id="stop149"
             style="stop-color:rgb(179,179,179);stop-opacity: 1"
             offset="0%" /><stop
             id="stop151"
             style="stop-color:rgb(183,183,183);stop-opacity: 0.85"
             offset="8%" /><stop
             id="stop153"
             style="stop-color:rgb(189,189,189);stop-opacity: 0.59"
             offset="24%" /><stop
             id="stop155"
             style="stop-color:rgb(195,195,195);stop-opacity: 0.38"
             offset="40%" /><stop
             id="stop157"
             style="stop-color:rgb(199,199,199);stop-opacity: 0.21"
             offset="55.00000000000001%" /><stop
             id="stop159"
             style="stop-color:rgb(202,202,202);stop-opacity: 0.09"
             offset="71%" /><stop
             id="stop161"
             style="stop-color:rgb(203,203,203);stop-opacity: 0.02"
             offset="86%" /><stop
             id="stop163"
             style="stop-color:rgb(204,204,204);stop-opacity: 0"
             offset="100%" /></linearGradient><path
           id="path166"
           stroke-linecap="round"
           d="M 122.55 40.59 l -0.58 0.34 a 31.63 31.63 0 0 0 -7.41 6.14 A 147.78 147.78 0 0 0 87.2 44.56 c 0.34 -0.66 0.7 -1.3 1.08 -1.94 A 53.94 53.94 0 0 1 98.84 29.76 c 0.2 0 0.41 0 0.62 0 A 29.92 29.92 0 0 1 122.55 40.59 Z"
           transform=" translate(-104.88, -38.41)"
           style="stroke: none; stroke-width: 1; stroke-dasharray: none; stroke-linecap: butt; stroke-dashoffset: 0; stroke-linejoin: miter; stroke-miterlimit: 4; fill: url(#SVGID_e3e23732-759a-4688-966c-e4a62335ea8d_828); fill-rule: nonzero; opacity: 1;" /></g><g
         id="g189"
         transform="matrix(1 0 0 1 62.84 -113.35)"><linearGradient
           y2="23.05"
           x2="145.96"
           y1="23.05"
           x1="200.2"
           gradientTransform="matrix(1 0 0 1 0 0)"
           gradientUnits="userSpaceOnUse"
           id="SVGID_af1347b5-c9e3-41d7-b555-dba08b967dad_829"><stop
             id="stop170"
             style="stop-color:rgb(179,179,179);stop-opacity: 1"
             offset="0%" /><stop
             id="stop172"
             style="stop-color:rgb(183,183,183);stop-opacity: 0.85"
             offset="8%" /><stop
             id="stop174"
             style="stop-color:rgb(189,189,189);stop-opacity: 0.59"
             offset="24%" /><stop
             id="stop176"
             style="stop-color:rgb(195,195,195);stop-opacity: 0.38"
             offset="40%" /><stop
             id="stop178"
             style="stop-color:rgb(199,199,199);stop-opacity: 0.21"
             offset="55.00000000000001%" /><stop
             id="stop180"
             style="stop-color:rgb(202,202,202);stop-opacity: 0.09"
             offset="71%" /><stop
             id="stop182"
             style="stop-color:rgb(203,203,203);stop-opacity: 0.02"
             offset="86%" /><stop
             id="stop184"
             style="stop-color:rgb(204,204,204);stop-opacity: 0"
             offset="100%" /></linearGradient><path
           id="path187"
           stroke-linecap="round"
           d="M 200.2 19 L 166.69 34.6 a 114 114 0 0 0 -14.25 -0.85 c -2.11 0 -4.21 0.09 -6.32 0.27 a 32.31 32.31 0 0 1 -0.16 -3.28 a 32.9 32.9 0 0 1 6.15 -19.21 h 0 c 0.94 0 1.87 0 2.81 0 Q 186 11.49 200.2 19 Z"
           transform=" translate(-173.08, -23.06)"
           style="stroke: none; stroke-width: 1; stroke-dasharray: none; stroke-linecap: butt; stroke-dashoffset: 0; stroke-linejoin: miter; stroke-miterlimit: 4; fill: url(#SVGID_af1347b5-c9e3-41d7-b555-dba08b967dad_829); fill-rule: nonzero; opacity: 1;" /></g></g></g><g
     id="logo-name"
     style=""
     transform="matrix(2 0 0 2 322.06 223.5)"><linearGradient
       y2="33.89999999999999"
       x2="0"
       y1="0"
       x1="0"
       gradientTransform="matrix(1 0 0 1 -1 -16.95)"
       gradientUnits="userSpaceOnUse"
       id="SVGID_5"><stop
         id="stop194"
         style="stop-color:rgb(0,82,26);stop-opacity: 1"
         offset="0%" /></linearGradient><text
       id="text197"
       style="stroke: none; stroke-width: 1; stroke-dasharray: none; stroke-linecap: butt; stroke-dashoffset: 0; stroke-linejoin: miter; stroke-miterlimit: 4; fill: #ffffff; fill-rule: nonzero; opacity: 1; white-space: pre;"
       font-weight="normal"
       font-style="normal"
       font-size="30"
       font-family="Elsie"
       xml:space="preserve" />
</g></svg>